:SAMPLES-PER-SECOND 30
:FULLY-SPECIFIED
:DEGREES
133
root  -0.442431 39.2451 15.1776 -174.121 12.2726 179.89
RightUpLeg  -23.2736 10.4567 -6.53938
RightLeg  20.2709 6.54954 2.46247
RightFoot  -2.43699 -0.294861 3.56949
RightToes  -5.8209e-011 0 -3.6325e-017
Spine  41.3482 -1.10552 -3.49332
Spine1  6.84867 -1.81473 -3.1503
HEad  9.00665 5.62732 0.17397
LeftShoulder1  6.48028 -16.9759 -25.4417
LeftArm  0.468833 -46.5918 -75.5164
LeftForeArm  63.8514 5.18724 -1.40064
LeftHand  -0.246645 0.021 5.37786
RightShoulder  9.68547 17.5798 39.7694
RightArm  -6.07154 41.3152 51.1816
RightForeArm  16.0652 2.02858 9.41538
RightHand  -0.24729 -0.0210522 -5.37781
LeftUpLeg  -17.2215 17.9648 8.18802
LeftLeg  19.393 3.33537 1.63522
LeftFoot  -3.57455 0.728504 -10.3958
LeftToes  -7.45818e-011 -3.37383e-011 1.08613e-011
134
root  -0.437026 39.2199 15.1703 -174.148 13.1157 179.948
RightUpLeg  -23.501 10.9205 -6.47526
RightLeg  20.4985 6.87991 2.62838
RightFoot  -2.44345 -0.289237 3.50205
RightToes  -5.8209e-011 0 -3.6325e-017
Spine  41.402 -1.15833 -4.58928
Spine1  6.55079 -2.31486 -3.14116
HEad  8.99083 7.03081 0.0200287
LeftShoulder1  6.47286 -16.9826 -25.393
LeftArm  0.984801 -47.3388 -75.5836
LeftForeArm  65.1514 5.15852 -1.50787
LeftHand  -0.246645 0.021 5.37786
RightShoulder  9.68927 17.5692 39.8022
RightArm  -6.5636 41.3184 51.1102
RightForeArm  15.6128 2.76812 9.24816
RightHand  -0.24729 -0.0210522 -5.37781
LeftUpLeg  -17.1102 18.5884 8.32913
LeftLeg  19.7625 3.48063 1.71844
LeftFoot  -3.8672 0.713588 -10.5488
LeftToes  -7.45818e-011 -3.37383e-011 1.08613e-011
135
root  -0.432929 39.1955 15.1582 -174.143 13.9969 -179.999
RightUpLeg  -23.7459 11.3551 -6.41953
RightLeg  20.6995 7.26992 2.81816
RightFoot  -2.45375 -0.285006 3.45402
RightToes  -5.8209e-011 0 -3.6325e-017
Spine  41.2997 -1.25063 -5.6598
Spine1  6.38025 -2.79892 -3.26567
HEad  8.98232 8.43493 -0.0614256
LeftShoulder1  6.4574 -16.9919 -25.2992
LeftArm  1.3953 -48.11 -75.6857
LeftForeArm  66.5071 5.11202 -1.52747
LeftHand  -0.246645 0.021 5.37786
RightShoulder  9.69202 17.5522 39.831
RightArm  -6.98735 41.3292 51.0878
RightForeArm  14.9737 3.66451 9.12123
RightHand  -0.24729 -0.0210522 -5.37781
LeftUpLeg  -17.007 19.2312 8.45919
LeftLeg  20.1166 3.65124 1.81328
LeftFoot  -4.16316 0.698269 -10.7125
LeftToes  -7.45818e-011 -3.37383e-011 1.08613e-011
136
root  -0.429585 39.1719 15.1418 -174.147 14.8733 -179.949
RightUpLeg  -23.9588 11.8169 -6.37412
RightLeg  20.8742 7.62281 2.99143
RightFoot  -2.47619 -0.28333 3.444
RightToes  -5.8209e-011 0 -3.6325e-017
Spine  41.1486 -1.36862 -6.71365
Spine1  6.25641 -3.2848 -3.43654
HEad  8.941 9.82701 -0.0759877
LeftShoulder1  6.4432 -17.0107 -25.1965
LeftArm  1.89789 -48.8967 -75.8768
LeftForeArm  67.8271 5.07205 -1.58321
LeftHand  -0.246645 0.021 5.37786
RightShoulder  9.69183 17.5278 39.9081
RightArm  -7.35074 41.3575 51.0004
RightForeArm  14.1155 4.59169 9.04145
RightHand  -0.24729 -0.0210522 -5.37781
LeftUpLeg  -16.8692 19.6719 8.60641
LeftLeg  20.4582 3.97174 1.97118
LeftFoot  -4.45547 0.686477 -10.9426
LeftToes  -7.45818e-011 -3.37383e-011 1.08613e-011
137
root  -0.421431 39.1496 15.1261 -174.162 15.7641 -179.855
RightUpLeg  -24.1325 12.3667 -6.28125
RightLeg  21.0141 7.90282 3.1309
RightFoot  -2.47508 -0.281657 3.43265
RightToes  -5.8209e-011 0 -3.6325e-017
Spine  41.008 -1.46205 -7.78954
Spine1  6.1443 -3.7701 -3.52547
HEad  8.84169 11.2678 -0.106244
LeftShoulder1  6.42602 -17.0052 -25.1178
LeftArm  2.64177 -49.7756 -76.1695
LeftForeArm  68.9987 5.05585 -1.75117
LeftHand  -0.246645 0.021 5.37786
RightShoulder  9.67931 17.4886 39.9322
RightArm  -7.84725 41.3805 50.9354
RightForeArm  13.2809 5.55062 8.90653
RightHand  -0.24729 -0.0210522 -5.37781
LeftUpLeg  -16.6972 20.1697 8.81646
LeftLeg  20.8044 4.22277 2.10484
LeftFoot  -4.74777 0.672434 -11.1537
LeftToes  -7.45818e-011 -3.37383e-011 1.08613e-011
138
root  -0.41342 39.1313 15.1071 -174.17 16.6696 -179.747
RightUpLeg  -24.2853 12.8824 -6.16321
RightLeg  21.1284 8.22677 3.28621
RightFoot  -2.44393 -0.276749 3.36998
RightToes  -5.8209e-011 0 -3.6325e-017
Spine  40.8238 -1.57864 -8.85357
Spine1  6.08983 -4.26473 -3.62988
HEad  8.71222 12.7494 -0.163547
LeftShoulder1  6.39048 -16.9685 -24.9954
LeftArm  3.51689 -50.756 -76.5455
LeftForeArm  70.0459 5.04947 -1.9529
LeftHand  -0.246645 0.021 5.37786
RightShoulder  9.6379 17.4335 39.8605
RightArm  -8.39874 41.3951 51.0077
RightForeArm  12.4069 6.63412 8.70084
RightHand  -0.24729 -0.0210522 -5.37781
LeftUpLeg  -16.5009 20.9349 9.0267
LeftLeg  21.1131 4.25024 2.14407
LeftFoot  -5.03453 0.652828 -11.2752
LeftToes  -7.45818e-011 -3.37383e-011 1.08613e-011
139
root  -0.414674 39.1167 15.0777 -174.184 17.5503 -179.71
RightUpLeg  -24.4341 13.2428 -6.11332
RightLeg  21.2643 8.66862 3.49667
RightFoot  -2.43423 -0.269565 3.27116
RightToes  -5.8209e-011 0 -3.6325e-017
Spine  40.6106 -1.77984 -9.87424
Spine1  6.01885 -4.79945 -3.85712
HEad  8.62609 14.2643 -0.160194
LeftShoulder1  6.35022 -16.945 -24.8273
LeftArm  4.29344 -51.6942 -76.9556
LeftForeArm  71.1034 5.02886 -2.0759
LeftHand  -0.246645 0.021 5.37786
RightShoulder  9.59596 17.3767 39.7895
RightArm  -8.73474 41.3738 51.1261
RightForeArm  11.3057 7.87689 8.46899
RightHand  -0.24729 -0.0210522 -5.37781
LeftUpLeg  -16.2789 21.7081 9.14072
LeftLeg  21.3559 4.26354 2.17181
LeftFoot  -5.30657 0.632978 -11.3778
LeftToes  -7.45818e-011 -3.37383e-011 1.08613e-011
